<mxfile host="Electron" modified="2024-02-19T05:51:05.604Z" agent="Mozilla/5.0 (Windows NT 10.0; Win64; x64) AppleWebKit/537.36 (KHTML, like Gecko) draw.io/23.1.5 Chrome/120.0.6099.109 Electron/28.1.0 Safari/537.36" etag="gGz4coXYFKri7jfTNRj0" version="23.1.5" type="device">
  <diagram name="ページ1" id="v7MIHx-x15Hkn85eE5Pn">
    <mxGraphModel dx="1421" dy="824" grid="1" gridSize="10" guides="1" tooltips="1" connect="1" arrows="1" fold="1" page="1" pageScale="1" pageWidth="2000" pageHeight="2000" math="0" shadow="0">
      <root>
        <mxCell id="0" />
        <mxCell id="1" parent="0" />
        <mxCell id="Ys3rnDNPJow3rD2v_wVe-3" style="edgeStyle=orthogonalEdgeStyle;rounded=0;orthogonalLoop=1;jettySize=auto;html=1;shape=link;" edge="1" parent="1" source="Ys3rnDNPJow3rD2v_wVe-1" target="Ys3rnDNPJow3rD2v_wVe-2">
          <mxGeometry relative="1" as="geometry" />
        </mxCell>
        <mxCell id="Ys3rnDNPJow3rD2v_wVe-5" style="edgeStyle=orthogonalEdgeStyle;rounded=0;orthogonalLoop=1;jettySize=auto;html=1;entryX=0;entryY=0.5;entryDx=0;entryDy=0;shape=link;" edge="1" parent="1" source="Ys3rnDNPJow3rD2v_wVe-1" target="Ys3rnDNPJow3rD2v_wVe-4">
          <mxGeometry relative="1" as="geometry" />
        </mxCell>
        <mxCell id="Ys3rnDNPJow3rD2v_wVe-12" style="edgeStyle=orthogonalEdgeStyle;rounded=0;orthogonalLoop=1;jettySize=auto;html=1;entryX=0;entryY=0.5;entryDx=0;entryDy=0;shape=link;" edge="1" parent="1" source="Ys3rnDNPJow3rD2v_wVe-1" target="Ys3rnDNPJow3rD2v_wVe-11">
          <mxGeometry relative="1" as="geometry" />
        </mxCell>
        <mxCell id="Ys3rnDNPJow3rD2v_wVe-14" style="edgeStyle=orthogonalEdgeStyle;rounded=0;orthogonalLoop=1;jettySize=auto;html=1;entryX=0;entryY=0.5;entryDx=0;entryDy=0;shape=link;" edge="1" parent="1" source="Ys3rnDNPJow3rD2v_wVe-1" target="Ys3rnDNPJow3rD2v_wVe-13">
          <mxGeometry relative="1" as="geometry" />
        </mxCell>
        <mxCell id="Ys3rnDNPJow3rD2v_wVe-15" style="edgeStyle=orthogonalEdgeStyle;rounded=0;orthogonalLoop=1;jettySize=auto;html=1;entryX=0.5;entryY=0;entryDx=0;entryDy=0;" edge="1" parent="1" source="Ys3rnDNPJow3rD2v_wVe-1" target="Ys3rnDNPJow3rD2v_wVe-8">
          <mxGeometry relative="1" as="geometry">
            <Array as="points">
              <mxPoint x="810" y="190" />
              <mxPoint x="460" y="190" />
            </Array>
          </mxGeometry>
        </mxCell>
        <mxCell id="Ys3rnDNPJow3rD2v_wVe-17" style="edgeStyle=orthogonalEdgeStyle;rounded=0;orthogonalLoop=1;jettySize=auto;html=1;" edge="1" parent="1" source="Ys3rnDNPJow3rD2v_wVe-1" target="Ys3rnDNPJow3rD2v_wVe-16">
          <mxGeometry relative="1" as="geometry" />
        </mxCell>
        <mxCell id="Ys3rnDNPJow3rD2v_wVe-1" value="&lt;h1&gt;GameManager&lt;/h1&gt;" style="rounded=1;whiteSpace=wrap;html=1;fillColor=#a20025;fontColor=#ffffff;strokeColor=#6F0000;" vertex="1" parent="1">
          <mxGeometry x="680" y="65" width="260" height="60" as="geometry" />
        </mxCell>
        <mxCell id="Ys3rnDNPJow3rD2v_wVe-2" value="&lt;h2&gt;UserController&lt;/h2&gt;&lt;div&gt;Staticなアクセスを各Controllerから&lt;/div&gt;&lt;div&gt;gameManagerを通して行われる&lt;/div&gt;" style="rounded=1;whiteSpace=wrap;html=1;fillColor=#6d8764;fontColor=#ffffff;strokeColor=#3A5431;" vertex="1" parent="1">
          <mxGeometry x="1040" y="50" width="220" height="90" as="geometry" />
        </mxCell>
        <mxCell id="Ys3rnDNPJow3rD2v_wVe-4" value="&lt;h2&gt;GeneralParameter&lt;/h2&gt;&lt;div&gt;一般的なパラメーターを&lt;/div&gt;&lt;div&gt;gameManagerを通して取得される&lt;/div&gt;" style="rounded=1;whiteSpace=wrap;html=1;fillColor=#6d8764;fontColor=#ffffff;strokeColor=#3A5431;" vertex="1" parent="1">
          <mxGeometry x="1040" y="155" width="220" height="90" as="geometry" />
        </mxCell>
        <mxCell id="Ys3rnDNPJow3rD2v_wVe-10" style="edgeStyle=orthogonalEdgeStyle;rounded=0;orthogonalLoop=1;jettySize=auto;html=1;" edge="1" parent="1" source="Ys3rnDNPJow3rD2v_wVe-8" target="Ys3rnDNPJow3rD2v_wVe-9">
          <mxGeometry relative="1" as="geometry" />
        </mxCell>
        <mxCell id="Ys3rnDNPJow3rD2v_wVe-8" value="&lt;h2&gt;&lt;font color=&quot;#ffffff&quot;&gt;StartCanvasController&lt;/font&gt;&lt;/h2&gt;&lt;div&gt;&lt;font color=&quot;#ffffff&quot;&gt;Start時やSettingなどEscを押して行われる&lt;/font&gt;&lt;/div&gt;&lt;div&gt;&lt;font color=&quot;#ffffff&quot;&gt;ゲームシステムの操作に置いて使われる&lt;/font&gt;&lt;/div&gt;" style="rounded=1;whiteSpace=wrap;html=1;fillColor=#f0a30a;fontColor=#000000;strokeColor=#BD7000;" vertex="1" parent="1">
          <mxGeometry x="330" y="230" width="260" height="90" as="geometry" />
        </mxCell>
        <mxCell id="Ys3rnDNPJow3rD2v_wVe-9" value="&lt;h3&gt;DataPanel&lt;/h3&gt;&lt;div&gt;OSAを内包しデータのUI操作を行う&lt;/div&gt;" style="rounded=1;whiteSpace=wrap;html=1;" vertex="1" parent="1">
          <mxGeometry x="230" y="360" width="170" height="80" as="geometry" />
        </mxCell>
        <mxCell id="Ys3rnDNPJow3rD2v_wVe-11" value="&lt;h2&gt;EventSceneController&lt;/h2&gt;&lt;div&gt;イベントは割り込み型であるため&lt;/div&gt;&lt;div&gt;各ControllerからGameManagerを通し&lt;/div&gt;&lt;div&gt;RunEventIfNeededされる&lt;/div&gt;" style="rounded=1;whiteSpace=wrap;html=1;fillColor=#6d8764;fontColor=#ffffff;strokeColor=#3A5431;" vertex="1" parent="1">
          <mxGeometry x="1040" y="260" width="220" height="120" as="geometry" />
        </mxCell>
        <mxCell id="Ys3rnDNPJow3rD2v_wVe-13" value="&lt;h2&gt;FadeInOutCanvas&lt;/h2&gt;&lt;div&gt;各種目隠し的に画面を暗転させる&lt;/div&gt;" style="rounded=1;whiteSpace=wrap;html=1;fillColor=#6d8764;fontColor=#ffffff;strokeColor=#3A5431;" vertex="1" parent="1">
          <mxGeometry x="1040" y="400" width="220" height="90" as="geometry" />
        </mxCell>
        <mxCell id="Ys3rnDNPJow3rD2v_wVe-16" value="&lt;h2&gt;&lt;font color=&quot;#ffffff&quot;&gt;MainMapScene&lt;/font&gt;&lt;/h2&gt;&lt;div&gt;&lt;font color=&quot;#ffffff&quot;&gt;GameManagerから指示されて&lt;/font&gt;&lt;/div&gt;&lt;div&gt;&lt;font color=&quot;#ffffff&quot;&gt;MainMapControllerを読み込んだりする&lt;/font&gt;&lt;/div&gt;&lt;div&gt;&lt;font color=&quot;#ffffff&quot;&gt;Tactics時はほぼ動かない&lt;/font&gt;&lt;/div&gt;" style="rounded=1;whiteSpace=wrap;html=1;fillColor=#f0a30a;fontColor=#000000;strokeColor=#BD7000;" vertex="1" parent="1">
          <mxGeometry x="675" y="225" width="270" height="100" as="geometry" />
        </mxCell>
        <mxCell id="Ys3rnDNPJow3rD2v_wVe-18" value="&lt;h2&gt;&lt;font color=&quot;#ffffff&quot;&gt;MainUIController&lt;/font&gt;&lt;/h2&gt;&lt;div&gt;&lt;font color=&quot;#ffffff&quot;&gt;MainMapでのUIを統括する&lt;/font&gt;&lt;/div&gt;" style="rounded=1;whiteSpace=wrap;html=1;fillColor=#f0a30a;fontColor=#000000;strokeColor=#BD7000;" vertex="1" parent="1">
          <mxGeometry x="680" y="395" width="270" height="100" as="geometry" />
        </mxCell>
        <mxCell id="Ys3rnDNPJow3rD2v_wVe-19" value="&lt;h2&gt;&lt;font color=&quot;#ffffff&quot;&gt;TableIconsPanel&lt;/font&gt;&lt;/h2&gt;&lt;div&gt;&lt;font color=&quot;#ffffff&quot;&gt;MainMapのTableで2Dで表示する&lt;/font&gt;&lt;/div&gt;&lt;div&gt;&lt;font color=&quot;#ffffff&quot;&gt;各種アイコンの表示場所とその制御関数&lt;/font&gt;&lt;/div&gt;&lt;div&gt;&lt;font color=&quot;#ffffff&quot;&gt;MainUIControllerとは別のTable上のUI表示&lt;/font&gt;&lt;/div&gt;&lt;div&gt;&lt;font color=&quot;#ffffff&quot;&gt;MainMapControllerで主に使用される&lt;/font&gt;&lt;/div&gt;" style="rounded=1;whiteSpace=wrap;html=1;fillColor=#f0a30a;fontColor=#000000;strokeColor=#BD7000;" vertex="1" parent="1">
          <mxGeometry x="680" y="520" width="270" height="130" as="geometry" />
        </mxCell>
      </root>
    </mxGraphModel>
  </diagram>
</mxfile>
